#!OML:ASF H:\ManfredETheater\Project 1\Capture day 1\Session 1\subject.ASF
:FULLY-SPECIFIED
:DEGREES
181
root 0.17779 17.6819 -22.8355 -183.61 18.9463 -182.994
lowerback 10.2744 -0.897067 -0.356975
upperback 0.298447 -0.967785 2.78241
thorax -5.40173 -0.385437 3.25434
lowerneck -15.6177 3.72954 2.8892
upperneck 16.8262 6.19873 -7.33812
head 8.12015 2.53419 -2.17674
rclavicle 3.05134e-014 -2.54444e-014
rhumerus -55.9498 -22.8569 -51.5258
rradius 44.4463
rwrist -5.99593
rhand -24.0062 -14.2398
rfingers 7.12502
rthumb 2.47136 -44.2052
lclavicle 3.05134e-014 -2.54444e-014
lhumerus -53.5276 21.2206 65.9996
lradius 45.084
lwrist -14.0953
lhand -14.0592 1.43975
lfingers 7.12502
lthumb 12.072 31.0715
rfemur -14.2291 -6.79206 15.2193
rtibia 40.1579
rfoot -15.7977 -8.71713
rtoes -30.008
lfemur -24.309 -2.12242 -18.9961
ltibia 39.8391
lfoot -9.86556 -3.88456
ltoes -0.788813
182
root 0.187993 17.6961 -22.8772 -183.303 19.2785 -182.888
lowerback 10.213 -0.780666 -0.182353
upperback 0.222776 -0.79623 2.76138
thorax -5.45957 -0.305943 3.10831
lowerneck -15.5509 3.72679 2.90488
upperneck 16.9449 6.21225 -7.3498
head 8.14943 2.54263 -2.18241
rclavicle -9.74045e-015 -3.81667e-014
rhumerus -55.491 -22.5531 -51.8688
rradius 45.4042
rwrist -6.12658
rhand -24.2075 -13.8461
rfingers 7.12502
rthumb 2.27693 -43.8137
lclavicle -9.74045e-015 -3.81667e-014
lhumerus -53.3799 21.3366 66.5316
lradius 44.7268
lwrist -14.373
lhand -14.0685 1.23698
lfingers 7.12502
lthumb 12.063 30.8693
rfemur -13.9942 -6.32234 15.3956
rtibia 39.395
rfoot -15.8449 -8.80273
rtoes -29.9545
lfemur -24.3745 -2.10835 -18.8359
ltibia 39.8095
lfoot -10.0078 -3.58576
ltoes -0.802925
183
root 0.196278 17.7108 -22.9174 -182.998 19.6154 -182.807
lowerback 10.1572 -0.661155 -0.0168523
upperback 0.140952 -0.622372 2.73209
thorax -5.52593 -0.225509 2.95869
lowerneck -15.4901 3.7226 2.92039
upperneck 17.0667 6.2246 -7.363
head 8.18082 2.55025 -2.18862
rclavicle 3.05134e-014 -2.06736e-014
rhumerus -55.0241 -22.2621 -52.2283
rradius 46.3486
rwrist -6.37778
rhand -24.5222 -13.5458
rfingers 7.12502
rthumb 1.973 -43.5165
lclavicle 3.05134e-014 -2.06736e-014
lhumerus -53.2255 21.4599 67.0445
lradius 44.3989
lwrist -14.5787
lhand -14.0649 1.07296
lfingers 7.12502
lthumb 12.0666 30.7051
rfemur -13.852 -5.89216 15.5263
rtibia 38.7627
rfoot -15.8628 -8.79071
rtoes -29.8927
lfemur -24.4453 -2.1145 -18.7092
ltibia 39.7703
lfoot -10.1297 -3.26124
ltoes -0.834178
184
root 0.202999 17.7261 -22.9563 -182.698 19.9628 -182.73
lowerback 10.1128 -0.540742 0.151686
upperback 0.0608909 -0.446599 2.70153
thorax -5.59577 -0.144362 2.80592
lowerneck -15.4577 3.72126 2.94011
upperneck 17.2005 6.24076 -7.37807
head 8.22175 2.55877 -2.19535
rclavicle -6.12257e-014 1.43125e-014
rhumerus -54.5465 -22.0033 -52.5761
rradius 47.2522
rwrist -6.61963
rhand -24.8131 -13.2497
rfingers 7.12502
rthumb 1.69206 -43.2227
lclavicle -6.12257e-014 1.43125e-014
lhumerus -53.0581 21.6015 67.5353
lradius 44.0929
lwrist -14.7091
lhand -14.0455 0.943319
lfingers 7.12502
lthumb 12.0853 30.5743
rfemur -13.793 -5.50343 15.6373
rtibia 38.253
rfoot -15.8434 -8.72258
rtoes -29.8119
lfemur -24.5097 -2.13786 -18.5915
ltibia 39.7171
lfoot -10.2327 -2.90714
ltoes -0.87072
